<svg width="800" height="600" viewBox="0 0 800 600" fill="none" xmlns="http://www.w3.org/2000/svg">
  <path d="M400 50C229.8 50 91.7 188.1 91.7 358.3c0 170.2 138.1 308.3 308.3 308.3 170.2 0 308.3-138.1 308.3-308.3C708.3 188.1 570.2 50 400 50zm142.9 451.2c-37.5 37.5-81.2 66.7-130 86.5-50.4 20.4-103.8 30.8-158.3 30.8-54.5 0-107.9-10.4-158.3-30.8-48.8-19.8-92.5-49-130-86.5-37.5-37.5-66.7-81.2-86.5-130-20.4-50.4-30.8-103.8-30.8-158.3 0-54.5 10.4-107.9 30.8-158.3 19.8-48.8 49-92.5 86.5-130 37.5-37.5 81.2-66.7 130-86.5 50.4-20.4 103.8-30.8 158.3-30.8 54.5 0 107.9 10.4 158.3 30.8 48.8 19.8 92.5 49 130 86.5 37.5 37.5 66.7 81.2 86.5 130 20.4 50.4 30.8 103.8 30.8 158.3 0 54.5-10.4 107.9-30.8 158.3-19.8 48.8-49 92.5-86.5 130z" fill="#4CAF50"/>
  <path d="M400 150c-115.7 0-208.3 92.6-208.3 208.3 0 115.7 92.6 208.3 208.3 208.3 115.7 0 208.3-92.6 208.3-208.3 0-115.7-92.6-208.3-208.3-208.3zm96.2 304.5c-25.4 25.4-55 45.2-88.1 58.6-34.2 13.8-70.4 20.9-107.3 20.9-36.9 0-73.1-7.1-107.3-20.9-33.1-13.4-62.7-33.2-88.1-58.6-25.4-25.4-45.2-55-58.6-88.1-13.8-34.2-20.9-70.4-20.9-107.3 0-36.9 7.1-73.1 20.9-107.3 13.4-33.1 33.2-62.7 58.6-88.1 25.4-25.4 55-45.2 88.1-58.6 34.2-13.8 70.4-20.9 107.3-20.9 36.9 0 73.1 7.1 107.3 20.9 33.1 13.4 62.7 33.2 88.1 58.6 25.4 25.4 45.2 55 58.6 88.1 13.8 34.2 20.9 70.4 20.9 107.3 0 36.9-7.1 73.1-20.9 107.3-13.4 33.1-33.2 62.7-58.6 88.1z" fill="#81C784"/>
</svg>
